<?xml version="1.0" encoding="utf-8" standalone="no"?>
<!DOCTYPE svg PUBLIC "-//W3C//DTD SVG 1.1//EN"
  "http://www.w3.org/Graphics/SVG/1.1/DTD/svg11.dtd">
<svg xmlns:xlink="http://www.w3.org/1999/xlink" width="720pt" height="432pt" viewBox="0 0 720 432" xmlns="http://www.w3.org/2000/svg" version="1.1">
 <metadata>
  <rdf:RDF xmlns:dc="http://purl.org/dc/elements/1.1/" xmlns:cc="http://creativecommons.org/ns#" xmlns:rdf="http://www.w3.org/1999/02/22-rdf-syntax-ns#">
   <cc:Work>
    <dc:type rdf:resource="http://purl.org/dc/dcmitype/StillImage"/>
    <dc:date>2024-07-09T22:54:50.785614</dc:date>
    <dc:format>image/svg+xml</dc:format>
    <dc:creator>
     <cc:Agent>
      <dc:title>Matplotlib v3.8.4, https://matplotlib.org/</dc:title>
     </cc:Agent>
    </dc:creator>
   </cc:Work>
  </rdf:RDF>
 </metadata>
 <defs>
  <style type="text/css">*{stroke-linejoin: round; stroke-linecap: butt}</style>
 </defs>
 <g id="figure_1">
  <g id="patch_1">
   <path d="M 0 432 
L 720 432 
L 720 0 
L 0 0 
z
" style="fill: #ffffff"/>
  </g>
  <g id="axes_1">
   <g id="patch_2">
    <path d="M 90 384.48 
L 648 384.48 
L 648 51.84 
L 90 51.84 
z
" style="fill: #ffffff"/>
   </g>
   <g id="matplotlib.axis_1">
    <g id="xtick_1">
     <g id="line2d_1">
      <path d="M 171.727273 384.48 
L 171.727273 51.84 
" clip-path="url(#p903754755f)" style="fill: none; stroke: #b0b0b0; stroke-width: 0.8; stroke-linecap: square"/>
     </g>
     <g id="line2d_2">
      <defs>
       <path id="m2a28d779f2" d="M 0 0 
L 0 3.5 
" style="stroke: #000000; stroke-width: 0.8"/>
      </defs>
      <g>
       <use xlink:href="#m2a28d779f2" x="171.727273" y="384.48" style="stroke: #000000; stroke-width: 0.8"/>
      </g>
     </g>
     <g id="text_1">
      <!-- 20000 -->
      <g transform="translate(155.821023 399.078438) scale(0.1 -0.1)">
       <defs>
        <path id="DejaVuSans-32" d="M 1228 531 
L 3431 531 
L 3431 0 
L 469 0 
L 469 531 
Q 828 903 1448 1529 
Q 2069 2156 2228 2338 
Q 2531 2678 2651 2914 
Q 2772 3150 2772 3378 
Q 2772 3750 2511 3984 
Q 2250 4219 1831 4219 
Q 1534 4219 1204 4116 
Q 875 4013 500 3803 
L 500 4441 
Q 881 4594 1212 4672 
Q 1544 4750 1819 4750 
Q 2544 4750 2975 4387 
Q 3406 4025 3406 3419 
Q 3406 3131 3298 2873 
Q 3191 2616 2906 2266 
Q 2828 2175 2409 1742 
Q 1991 1309 1228 531 
z
" transform="scale(0.015625)"/>
        <path id="DejaVuSans-30" d="M 2034 4250 
Q 1547 4250 1301 3770 
Q 1056 3291 1056 2328 
Q 1056 1369 1301 889 
Q 1547 409 2034 409 
Q 2525 409 2770 889 
Q 3016 1369 3016 2328 
Q 3016 3291 2770 3770 
Q 2525 4250 2034 4250 
z
M 2034 4750 
Q 2819 4750 3233 4129 
Q 3647 3509 3647 2328 
Q 3647 1150 3233 529 
Q 2819 -91 2034 -91 
Q 1250 -91 836 529 
Q 422 1150 422 2328 
Q 422 3509 836 4129 
Q 1250 4750 2034 4750 
z
" transform="scale(0.015625)"/>
       </defs>
       <use xlink:href="#DejaVuSans-32"/>
       <use xlink:href="#DejaVuSans-30" x="63.623047"/>
       <use xlink:href="#DejaVuSans-30" x="127.246094"/>
       <use xlink:href="#DejaVuSans-30" x="190.869141"/>
       <use xlink:href="#DejaVuSans-30" x="254.492188"/>
      </g>
     </g>
    </g>
    <g id="xtick_2">
     <g id="line2d_3">
      <path d="M 284.454545 384.48 
L 284.454545 51.84 
" clip-path="url(#p903754755f)" style="fill: none; stroke: #b0b0b0; stroke-width: 0.8; stroke-linecap: square"/>
     </g>
     <g id="line2d_4">
      <g>
       <use xlink:href="#m2a28d779f2" x="284.454545" y="384.48" style="stroke: #000000; stroke-width: 0.8"/>
      </g>
     </g>
     <g id="text_2">
      <!-- 40000 -->
      <g transform="translate(268.548295 399.078438) scale(0.1 -0.1)">
       <defs>
        <path id="DejaVuSans-34" d="M 2419 4116 
L 825 1625 
L 2419 1625 
L 2419 4116 
z
M 2253 4666 
L 3047 4666 
L 3047 1625 
L 3713 1625 
L 3713 1100 
L 3047 1100 
L 3047 0 
L 2419 0 
L 2419 1100 
L 313 1100 
L 313 1709 
L 2253 4666 
z
" transform="scale(0.015625)"/>
       </defs>
       <use xlink:href="#DejaVuSans-34"/>
       <use xlink:href="#DejaVuSans-30" x="63.623047"/>
       <use xlink:href="#DejaVuSans-30" x="127.246094"/>
       <use xlink:href="#DejaVuSans-30" x="190.869141"/>
       <use xlink:href="#DejaVuSans-30" x="254.492188"/>
      </g>
     </g>
    </g>
    <g id="xtick_3">
     <g id="line2d_5">
      <path d="M 397.181818 384.48 
L 397.181818 51.84 
" clip-path="url(#p903754755f)" style="fill: none; stroke: #b0b0b0; stroke-width: 0.8; stroke-linecap: square"/>
     </g>
     <g id="line2d_6">
      <g>
       <use xlink:href="#m2a28d779f2" x="397.181818" y="384.48" style="stroke: #000000; stroke-width: 0.8"/>
      </g>
     </g>
     <g id="text_3">
      <!-- 60000 -->
      <g transform="translate(381.275568 399.078438) scale(0.1 -0.1)">
       <defs>
        <path id="DejaVuSans-36" d="M 2113 2584 
Q 1688 2584 1439 2293 
Q 1191 2003 1191 1497 
Q 1191 994 1439 701 
Q 1688 409 2113 409 
Q 2538 409 2786 701 
Q 3034 994 3034 1497 
Q 3034 2003 2786 2293 
Q 2538 2584 2113 2584 
z
M 3366 4563 
L 3366 3988 
Q 3128 4100 2886 4159 
Q 2644 4219 2406 4219 
Q 1781 4219 1451 3797 
Q 1122 3375 1075 2522 
Q 1259 2794 1537 2939 
Q 1816 3084 2150 3084 
Q 2853 3084 3261 2657 
Q 3669 2231 3669 1497 
Q 3669 778 3244 343 
Q 2819 -91 2113 -91 
Q 1303 -91 875 529 
Q 447 1150 447 2328 
Q 447 3434 972 4092 
Q 1497 4750 2381 4750 
Q 2619 4750 2861 4703 
Q 3103 4656 3366 4563 
z
" transform="scale(0.015625)"/>
       </defs>
       <use xlink:href="#DejaVuSans-36"/>
       <use xlink:href="#DejaVuSans-30" x="63.623047"/>
       <use xlink:href="#DejaVuSans-30" x="127.246094"/>
       <use xlink:href="#DejaVuSans-30" x="190.869141"/>
       <use xlink:href="#DejaVuSans-30" x="254.492188"/>
      </g>
     </g>
    </g>
    <g id="xtick_4">
     <g id="line2d_7">
      <path d="M 509.909091 384.48 
L 509.909091 51.84 
" clip-path="url(#p903754755f)" style="fill: none; stroke: #b0b0b0; stroke-width: 0.8; stroke-linecap: square"/>
     </g>
     <g id="line2d_8">
      <g>
       <use xlink:href="#m2a28d779f2" x="509.909091" y="384.48" style="stroke: #000000; stroke-width: 0.8"/>
      </g>
     </g>
     <g id="text_4">
      <!-- 80000 -->
      <g transform="translate(494.002841 399.078438) scale(0.1 -0.1)">
       <defs>
        <path id="DejaVuSans-38" d="M 2034 2216 
Q 1584 2216 1326 1975 
Q 1069 1734 1069 1313 
Q 1069 891 1326 650 
Q 1584 409 2034 409 
Q 2484 409 2743 651 
Q 3003 894 3003 1313 
Q 3003 1734 2745 1975 
Q 2488 2216 2034 2216 
z
M 1403 2484 
Q 997 2584 770 2862 
Q 544 3141 544 3541 
Q 544 4100 942 4425 
Q 1341 4750 2034 4750 
Q 2731 4750 3128 4425 
Q 3525 4100 3525 3541 
Q 3525 3141 3298 2862 
Q 3072 2584 2669 2484 
Q 3125 2378 3379 2068 
Q 3634 1759 3634 1313 
Q 3634 634 3220 271 
Q 2806 -91 2034 -91 
Q 1263 -91 848 271 
Q 434 634 434 1313 
Q 434 1759 690 2068 
Q 947 2378 1403 2484 
z
M 1172 3481 
Q 1172 3119 1398 2916 
Q 1625 2713 2034 2713 
Q 2441 2713 2670 2916 
Q 2900 3119 2900 3481 
Q 2900 3844 2670 4047 
Q 2441 4250 2034 4250 
Q 1625 4250 1398 4047 
Q 1172 3844 1172 3481 
z
" transform="scale(0.015625)"/>
       </defs>
       <use xlink:href="#DejaVuSans-38"/>
       <use xlink:href="#DejaVuSans-30" x="63.623047"/>
       <use xlink:href="#DejaVuSans-30" x="127.246094"/>
       <use xlink:href="#DejaVuSans-30" x="190.869141"/>
       <use xlink:href="#DejaVuSans-30" x="254.492188"/>
      </g>
     </g>
    </g>
    <g id="xtick_5">
     <g id="line2d_9">
      <path d="M 622.636364 384.48 
L 622.636364 51.84 
" clip-path="url(#p903754755f)" style="fill: none; stroke: #b0b0b0; stroke-width: 0.8; stroke-linecap: square"/>
     </g>
     <g id="line2d_10">
      <g>
       <use xlink:href="#m2a28d779f2" x="622.636364" y="384.48" style="stroke: #000000; stroke-width: 0.8"/>
      </g>
     </g>
     <g id="text_5">
      <!-- 100000 -->
      <g transform="translate(603.548864 399.078438) scale(0.1 -0.1)">
       <defs>
        <path id="DejaVuSans-31" d="M 794 531 
L 1825 531 
L 1825 4091 
L 703 3866 
L 703 4441 
L 1819 4666 
L 2450 4666 
L 2450 531 
L 3481 531 
L 3481 0 
L 794 0 
L 794 531 
z
" transform="scale(0.015625)"/>
       </defs>
       <use xlink:href="#DejaVuSans-31"/>
       <use xlink:href="#DejaVuSans-30" x="63.623047"/>
       <use xlink:href="#DejaVuSans-30" x="127.246094"/>
       <use xlink:href="#DejaVuSans-30" x="190.869141"/>
       <use xlink:href="#DejaVuSans-30" x="254.492188"/>
       <use xlink:href="#DejaVuSans-30" x="318.115234"/>
      </g>
     </g>
    </g>
    <g id="text_6">
     <!-- Tamanho das Entradas (n) -->
     <g transform="translate(303.444531 412.756563) scale(0.1 -0.1)">
      <defs>
       <path id="DejaVuSans-54" d="M -19 4666 
L 3928 4666 
L 3928 4134 
L 2272 4134 
L 2272 0 
L 1638 0 
L 1638 4134 
L -19 4134 
L -19 4666 
z
" transform="scale(0.015625)"/>
       <path id="DejaVuSans-61" d="M 2194 1759 
Q 1497 1759 1228 1600 
Q 959 1441 959 1056 
Q 959 750 1161 570 
Q 1363 391 1709 391 
Q 2188 391 2477 730 
Q 2766 1069 2766 1631 
L 2766 1759 
L 2194 1759 
z
M 3341 1997 
L 3341 0 
L 2766 0 
L 2766 531 
Q 2569 213 2275 61 
Q 1981 -91 1556 -91 
Q 1019 -91 701 211 
Q 384 513 384 1019 
Q 384 1609 779 1909 
Q 1175 2209 1959 2209 
L 2766 2209 
L 2766 2266 
Q 2766 2663 2505 2880 
Q 2244 3097 1772 3097 
Q 1472 3097 1187 3025 
Q 903 2953 641 2809 
L 641 3341 
Q 956 3463 1253 3523 
Q 1550 3584 1831 3584 
Q 2591 3584 2966 3190 
Q 3341 2797 3341 1997 
z
" transform="scale(0.015625)"/>
       <path id="DejaVuSans-6d" d="M 3328 2828 
Q 3544 3216 3844 3400 
Q 4144 3584 4550 3584 
Q 5097 3584 5394 3201 
Q 5691 2819 5691 2113 
L 5691 0 
L 5113 0 
L 5113 2094 
Q 5113 2597 4934 2840 
Q 4756 3084 4391 3084 
Q 3944 3084 3684 2787 
Q 3425 2491 3425 1978 
L 3425 0 
L 2847 0 
L 2847 2094 
Q 2847 2600 2669 2842 
Q 2491 3084 2119 3084 
Q 1678 3084 1418 2786 
Q 1159 2488 1159 1978 
L 1159 0 
L 581 0 
L 581 3500 
L 1159 3500 
L 1159 2956 
Q 1356 3278 1631 3431 
Q 1906 3584 2284 3584 
Q 2666 3584 2933 3390 
Q 3200 3197 3328 2828 
z
" transform="scale(0.015625)"/>
       <path id="DejaVuSans-6e" d="M 3513 2113 
L 3513 0 
L 2938 0 
L 2938 2094 
Q 2938 2591 2744 2837 
Q 2550 3084 2163 3084 
Q 1697 3084 1428 2787 
Q 1159 2491 1159 1978 
L 1159 0 
L 581 0 
L 581 3500 
L 1159 3500 
L 1159 2956 
Q 1366 3272 1645 3428 
Q 1925 3584 2291 3584 
Q 2894 3584 3203 3211 
Q 3513 2838 3513 2113 
z
" transform="scale(0.015625)"/>
       <path id="DejaVuSans-68" d="M 3513 2113 
L 3513 0 
L 2938 0 
L 2938 2094 
Q 2938 2591 2744 2837 
Q 2550 3084 2163 3084 
Q 1697 3084 1428 2787 
Q 1159 2491 1159 1978 
L 1159 0 
L 581 0 
L 581 4863 
L 1159 4863 
L 1159 2956 
Q 1366 3272 1645 3428 
Q 1925 3584 2291 3584 
Q 2894 3584 3203 3211 
Q 3513 2838 3513 2113 
z
" transform="scale(0.015625)"/>
       <path id="DejaVuSans-6f" d="M 1959 3097 
Q 1497 3097 1228 2736 
Q 959 2375 959 1747 
Q 959 1119 1226 758 
Q 1494 397 1959 397 
Q 2419 397 2687 759 
Q 2956 1122 2956 1747 
Q 2956 2369 2687 2733 
Q 2419 3097 1959 3097 
z
M 1959 3584 
Q 2709 3584 3137 3096 
Q 3566 2609 3566 1747 
Q 3566 888 3137 398 
Q 2709 -91 1959 -91 
Q 1206 -91 779 398 
Q 353 888 353 1747 
Q 353 2609 779 3096 
Q 1206 3584 1959 3584 
z
" transform="scale(0.015625)"/>
       <path id="DejaVuSans-20" transform="scale(0.015625)"/>
       <path id="DejaVuSans-64" d="M 2906 2969 
L 2906 4863 
L 3481 4863 
L 3481 0 
L 2906 0 
L 2906 525 
Q 2725 213 2448 61 
Q 2172 -91 1784 -91 
Q 1150 -91 751 415 
Q 353 922 353 1747 
Q 353 2572 751 3078 
Q 1150 3584 1784 3584 
Q 2172 3584 2448 3432 
Q 2725 3281 2906 2969 
z
M 947 1747 
Q 947 1113 1208 752 
Q 1469 391 1925 391 
Q 2381 391 2643 752 
Q 2906 1113 2906 1747 
Q 2906 2381 2643 2742 
Q 2381 3103 1925 3103 
Q 1469 3103 1208 2742 
Q 947 2381 947 1747 
z
" transform="scale(0.015625)"/>
       <path id="DejaVuSans-73" d="M 2834 3397 
L 2834 2853 
Q 2591 2978 2328 3040 
Q 2066 3103 1784 3103 
Q 1356 3103 1142 2972 
Q 928 2841 928 2578 
Q 928 2378 1081 2264 
Q 1234 2150 1697 2047 
L 1894 2003 
Q 2506 1872 2764 1633 
Q 3022 1394 3022 966 
Q 3022 478 2636 193 
Q 2250 -91 1575 -91 
Q 1294 -91 989 -36 
Q 684 19 347 128 
L 347 722 
Q 666 556 975 473 
Q 1284 391 1588 391 
Q 1994 391 2212 530 
Q 2431 669 2431 922 
Q 2431 1156 2273 1281 
Q 2116 1406 1581 1522 
L 1381 1569 
Q 847 1681 609 1914 
Q 372 2147 372 2553 
Q 372 3047 722 3315 
Q 1072 3584 1716 3584 
Q 2034 3584 2315 3537 
Q 2597 3491 2834 3397 
z
" transform="scale(0.015625)"/>
       <path id="DejaVuSans-45" d="M 628 4666 
L 3578 4666 
L 3578 4134 
L 1259 4134 
L 1259 2753 
L 3481 2753 
L 3481 2222 
L 1259 2222 
L 1259 531 
L 3634 531 
L 3634 0 
L 628 0 
L 628 4666 
z
" transform="scale(0.015625)"/>
       <path id="DejaVuSans-74" d="M 1172 4494 
L 1172 3500 
L 2356 3500 
L 2356 3053 
L 1172 3053 
L 1172 1153 
Q 1172 725 1289 603 
Q 1406 481 1766 481 
L 2356 481 
L 2356 0 
L 1766 0 
Q 1100 0 847 248 
Q 594 497 594 1153 
L 594 3053 
L 172 3053 
L 172 3500 
L 594 3500 
L 594 4494 
L 1172 4494 
z
" transform="scale(0.015625)"/>
       <path id="DejaVuSans-72" d="M 2631 2963 
Q 2534 3019 2420 3045 
Q 2306 3072 2169 3072 
Q 1681 3072 1420 2755 
Q 1159 2438 1159 1844 
L 1159 0 
L 581 0 
L 581 3500 
L 1159 3500 
L 1159 2956 
Q 1341 3275 1631 3429 
Q 1922 3584 2338 3584 
Q 2397 3584 2469 3576 
Q 2541 3569 2628 3553 
L 2631 2963 
z
" transform="scale(0.015625)"/>
       <path id="DejaVuSans-28" d="M 1984 4856 
Q 1566 4138 1362 3434 
Q 1159 2731 1159 2009 
Q 1159 1288 1364 580 
Q 1569 -128 1984 -844 
L 1484 -844 
Q 1016 -109 783 600 
Q 550 1309 550 2009 
Q 550 2706 781 3412 
Q 1013 4119 1484 4856 
L 1984 4856 
z
" transform="scale(0.015625)"/>
       <path id="DejaVuSans-29" d="M 513 4856 
L 1013 4856 
Q 1481 4119 1714 3412 
Q 1947 2706 1947 2009 
Q 1947 1309 1714 600 
Q 1481 -109 1013 -844 
L 513 -844 
Q 928 -128 1133 580 
Q 1338 1288 1338 2009 
Q 1338 2731 1133 3434 
Q 928 4138 513 4856 
z
" transform="scale(0.015625)"/>
      </defs>
      <use xlink:href="#DejaVuSans-54"/>
      <use xlink:href="#DejaVuSans-61" x="44.583984"/>
      <use xlink:href="#DejaVuSans-6d" x="105.863281"/>
      <use xlink:href="#DejaVuSans-61" x="203.275391"/>
      <use xlink:href="#DejaVuSans-6e" x="264.554688"/>
      <use xlink:href="#DejaVuSans-68" x="327.933594"/>
      <use xlink:href="#DejaVuSans-6f" x="391.3125"/>
      <use xlink:href="#DejaVuSans-20" x="452.494141"/>
      <use xlink:href="#DejaVuSans-64" x="484.28125"/>
      <use xlink:href="#DejaVuSans-61" x="547.757812"/>
      <use xlink:href="#DejaVuSans-73" x="609.037109"/>
      <use xlink:href="#DejaVuSans-20" x="661.136719"/>
      <use xlink:href="#DejaVuSans-45" x="692.923828"/>
      <use xlink:href="#DejaVuSans-6e" x="756.107422"/>
      <use xlink:href="#DejaVuSans-74" x="819.486328"/>
      <use xlink:href="#DejaVuSans-72" x="858.695312"/>
      <use xlink:href="#DejaVuSans-61" x="899.808594"/>
      <use xlink:href="#DejaVuSans-64" x="961.087891"/>
      <use xlink:href="#DejaVuSans-61" x="1024.564453"/>
      <use xlink:href="#DejaVuSans-73" x="1085.84375"/>
      <use xlink:href="#DejaVuSans-20" x="1137.943359"/>
      <use xlink:href="#DejaVuSans-28" x="1169.730469"/>
      <use xlink:href="#DejaVuSans-6e" x="1208.744141"/>
      <use xlink:href="#DejaVuSans-29" x="1272.123047"/>
     </g>
    </g>
   </g>
   <g id="matplotlib.axis_2">
    <g id="ytick_1">
     <g id="line2d_11">
      <path d="M 90 369.36 
L 648 369.36 
" clip-path="url(#p903754755f)" style="fill: none; stroke: #b0b0b0; stroke-width: 0.8; stroke-linecap: square"/>
     </g>
     <g id="line2d_12">
      <defs>
       <path id="me95e629465" d="M 0 0 
L -3.5 0 
" style="stroke: #000000; stroke-width: 0.8"/>
      </defs>
      <g>
       <use xlink:href="#me95e629465" x="90" y="369.36" style="stroke: #000000; stroke-width: 0.8"/>
      </g>
     </g>
     <g id="text_7">
      <!-- 0 -->
      <g transform="translate(76.6375 373.159219) scale(0.1 -0.1)">
       <use xlink:href="#DejaVuSans-30"/>
      </g>
     </g>
    </g>
    <g id="ytick_2">
     <g id="line2d_13">
      <path d="M 90 329.933664 
L 648 329.933664 
" clip-path="url(#p903754755f)" style="fill: none; stroke: #b0b0b0; stroke-width: 0.8; stroke-linecap: square"/>
     </g>
     <g id="line2d_14">
      <g>
       <use xlink:href="#me95e629465" x="90" y="329.933664" style="stroke: #000000; stroke-width: 0.8"/>
      </g>
     </g>
     <g id="text_8">
      <!-- 1 -->
      <g transform="translate(76.6375 333.732882) scale(0.1 -0.1)">
       <use xlink:href="#DejaVuSans-31"/>
      </g>
     </g>
    </g>
    <g id="ytick_3">
     <g id="line2d_15">
      <path d="M 90 290.507327 
L 648 290.507327 
" clip-path="url(#p903754755f)" style="fill: none; stroke: #b0b0b0; stroke-width: 0.8; stroke-linecap: square"/>
     </g>
     <g id="line2d_16">
      <g>
       <use xlink:href="#me95e629465" x="90" y="290.507327" style="stroke: #000000; stroke-width: 0.8"/>
      </g>
     </g>
     <g id="text_9">
      <!-- 2 -->
      <g transform="translate(76.6375 294.306546) scale(0.1 -0.1)">
       <use xlink:href="#DejaVuSans-32"/>
      </g>
     </g>
    </g>
    <g id="ytick_4">
     <g id="line2d_17">
      <path d="M 90 251.080991 
L 648 251.080991 
" clip-path="url(#p903754755f)" style="fill: none; stroke: #b0b0b0; stroke-width: 0.8; stroke-linecap: square"/>
     </g>
     <g id="line2d_18">
      <g>
       <use xlink:href="#me95e629465" x="90" y="251.080991" style="stroke: #000000; stroke-width: 0.8"/>
      </g>
     </g>
     <g id="text_10">
      <!-- 3 -->
      <g transform="translate(76.6375 254.88021) scale(0.1 -0.1)">
       <defs>
        <path id="DejaVuSans-33" d="M 2597 2516 
Q 3050 2419 3304 2112 
Q 3559 1806 3559 1356 
Q 3559 666 3084 287 
Q 2609 -91 1734 -91 
Q 1441 -91 1130 -33 
Q 819 25 488 141 
L 488 750 
Q 750 597 1062 519 
Q 1375 441 1716 441 
Q 2309 441 2620 675 
Q 2931 909 2931 1356 
Q 2931 1769 2642 2001 
Q 2353 2234 1838 2234 
L 1294 2234 
L 1294 2753 
L 1863 2753 
Q 2328 2753 2575 2939 
Q 2822 3125 2822 3475 
Q 2822 3834 2567 4026 
Q 2313 4219 1838 4219 
Q 1578 4219 1281 4162 
Q 984 4106 628 3988 
L 628 4550 
Q 988 4650 1302 4700 
Q 1616 4750 1894 4750 
Q 2613 4750 3031 4423 
Q 3450 4097 3450 3541 
Q 3450 3153 3228 2886 
Q 3006 2619 2597 2516 
z
" transform="scale(0.015625)"/>
       </defs>
       <use xlink:href="#DejaVuSans-33"/>
      </g>
     </g>
    </g>
    <g id="ytick_5">
     <g id="line2d_19">
      <path d="M 90 211.654654 
L 648 211.654654 
" clip-path="url(#p903754755f)" style="fill: none; stroke: #b0b0b0; stroke-width: 0.8; stroke-linecap: square"/>
     </g>
     <g id="line2d_20">
      <g>
       <use xlink:href="#me95e629465" x="90" y="211.654654" style="stroke: #000000; stroke-width: 0.8"/>
      </g>
     </g>
     <g id="text_11">
      <!-- 4 -->
      <g transform="translate(76.6375 215.453873) scale(0.1 -0.1)">
       <use xlink:href="#DejaVuSans-34"/>
      </g>
     </g>
    </g>
    <g id="ytick_6">
     <g id="line2d_21">
      <path d="M 90 172.228318 
L 648 172.228318 
" clip-path="url(#p903754755f)" style="fill: none; stroke: #b0b0b0; stroke-width: 0.8; stroke-linecap: square"/>
     </g>
     <g id="line2d_22">
      <g>
       <use xlink:href="#me95e629465" x="90" y="172.228318" style="stroke: #000000; stroke-width: 0.8"/>
      </g>
     </g>
     <g id="text_12">
      <!-- 5 -->
      <g transform="translate(76.6375 176.027537) scale(0.1 -0.1)">
       <defs>
        <path id="DejaVuSans-35" d="M 691 4666 
L 3169 4666 
L 3169 4134 
L 1269 4134 
L 1269 2991 
Q 1406 3038 1543 3061 
Q 1681 3084 1819 3084 
Q 2600 3084 3056 2656 
Q 3513 2228 3513 1497 
Q 3513 744 3044 326 
Q 2575 -91 1722 -91 
Q 1428 -91 1123 -41 
Q 819 9 494 109 
L 494 744 
Q 775 591 1075 516 
Q 1375 441 1709 441 
Q 2250 441 2565 725 
Q 2881 1009 2881 1497 
Q 2881 1984 2565 2268 
Q 2250 2553 1709 2553 
Q 1456 2553 1204 2497 
Q 953 2441 691 2322 
L 691 4666 
z
" transform="scale(0.015625)"/>
       </defs>
       <use xlink:href="#DejaVuSans-35"/>
      </g>
     </g>
    </g>
    <g id="ytick_7">
     <g id="line2d_23">
      <path d="M 90 132.801982 
L 648 132.801982 
" clip-path="url(#p903754755f)" style="fill: none; stroke: #b0b0b0; stroke-width: 0.8; stroke-linecap: square"/>
     </g>
     <g id="line2d_24">
      <g>
       <use xlink:href="#me95e629465" x="90" y="132.801982" style="stroke: #000000; stroke-width: 0.8"/>
      </g>
     </g>
     <g id="text_13">
      <!-- 6 -->
      <g transform="translate(76.6375 136.6012) scale(0.1 -0.1)">
       <use xlink:href="#DejaVuSans-36"/>
      </g>
     </g>
    </g>
    <g id="ytick_8">
     <g id="line2d_25">
      <path d="M 90 93.375645 
L 648 93.375645 
" clip-path="url(#p903754755f)" style="fill: none; stroke: #b0b0b0; stroke-width: 0.8; stroke-linecap: square"/>
     </g>
     <g id="line2d_26">
      <g>
       <use xlink:href="#me95e629465" x="90" y="93.375645" style="stroke: #000000; stroke-width: 0.8"/>
      </g>
     </g>
     <g id="text_14">
      <!-- 7 -->
      <g transform="translate(76.6375 97.174864) scale(0.1 -0.1)">
       <defs>
        <path id="DejaVuSans-37" d="M 525 4666 
L 3525 4666 
L 3525 4397 
L 1831 0 
L 1172 0 
L 2766 4134 
L 525 4134 
L 525 4666 
z
" transform="scale(0.015625)"/>
       </defs>
       <use xlink:href="#DejaVuSans-37"/>
      </g>
     </g>
    </g>
    <g id="ytick_9">
     <g id="line2d_27">
      <path d="M 90 53.949309 
L 648 53.949309 
" clip-path="url(#p903754755f)" style="fill: none; stroke: #b0b0b0; stroke-width: 0.8; stroke-linecap: square"/>
     </g>
     <g id="line2d_28">
      <g>
       <use xlink:href="#me95e629465" x="90" y="53.949309" style="stroke: #000000; stroke-width: 0.8"/>
      </g>
     </g>
     <g id="text_15">
      <!-- 8 -->
      <g transform="translate(76.6375 57.748528) scale(0.1 -0.1)">
       <use xlink:href="#DejaVuSans-38"/>
      </g>
     </g>
    </g>
    <g id="text_16">
     <!-- Tempo médio -->
     <g transform="translate(70.557812 251.702969) rotate(-90) scale(0.1 -0.1)">
      <defs>
       <path id="DejaVuSans-65" d="M 3597 1894 
L 3597 1613 
L 953 1613 
Q 991 1019 1311 708 
Q 1631 397 2203 397 
Q 2534 397 2845 478 
Q 3156 559 3463 722 
L 3463 178 
Q 3153 47 2828 -22 
Q 2503 -91 2169 -91 
Q 1331 -91 842 396 
Q 353 884 353 1716 
Q 353 2575 817 3079 
Q 1281 3584 2069 3584 
Q 2775 3584 3186 3129 
Q 3597 2675 3597 1894 
z
M 3022 2063 
Q 3016 2534 2758 2815 
Q 2500 3097 2075 3097 
Q 1594 3097 1305 2825 
Q 1016 2553 972 2059 
L 3022 2063 
z
" transform="scale(0.015625)"/>
       <path id="DejaVuSans-70" d="M 1159 525 
L 1159 -1331 
L 581 -1331 
L 581 3500 
L 1159 3500 
L 1159 2969 
Q 1341 3281 1617 3432 
Q 1894 3584 2278 3584 
Q 2916 3584 3314 3078 
Q 3713 2572 3713 1747 
Q 3713 922 3314 415 
Q 2916 -91 2278 -91 
Q 1894 -91 1617 61 
Q 1341 213 1159 525 
z
M 3116 1747 
Q 3116 2381 2855 2742 
Q 2594 3103 2138 3103 
Q 1681 3103 1420 2742 
Q 1159 2381 1159 1747 
Q 1159 1113 1420 752 
Q 1681 391 2138 391 
Q 2594 391 2855 752 
Q 3116 1113 3116 1747 
z
" transform="scale(0.015625)"/>
       <path id="DejaVuSans-e9" d="M 3597 1894 
L 3597 1613 
L 953 1613 
Q 991 1019 1311 708 
Q 1631 397 2203 397 
Q 2534 397 2845 478 
Q 3156 559 3463 722 
L 3463 178 
Q 3153 47 2828 -22 
Q 2503 -91 2169 -91 
Q 1331 -91 842 396 
Q 353 884 353 1716 
Q 353 2575 817 3079 
Q 1281 3584 2069 3584 
Q 2775 3584 3186 3129 
Q 3597 2675 3597 1894 
z
M 3022 2063 
Q 3016 2534 2758 2815 
Q 2500 3097 2075 3097 
Q 1594 3097 1305 2825 
Q 1016 2553 972 2059 
L 3022 2063 
z
M 2469 5119 
L 3091 5119 
L 2072 3944 
L 1594 3944 
L 2469 5119 
z
" transform="scale(0.015625)"/>
       <path id="DejaVuSans-69" d="M 603 3500 
L 1178 3500 
L 1178 0 
L 603 0 
L 603 3500 
z
M 603 4863 
L 1178 4863 
L 1178 4134 
L 603 4134 
L 603 4863 
z
" transform="scale(0.015625)"/>
      </defs>
      <use xlink:href="#DejaVuSans-54"/>
      <use xlink:href="#DejaVuSans-65" x="44.083984"/>
      <use xlink:href="#DejaVuSans-6d" x="105.607422"/>
      <use xlink:href="#DejaVuSans-70" x="203.019531"/>
      <use xlink:href="#DejaVuSans-6f" x="266.496094"/>
      <use xlink:href="#DejaVuSans-20" x="327.677734"/>
      <use xlink:href="#DejaVuSans-6d" x="359.464844"/>
      <use xlink:href="#DejaVuSans-e9" x="456.876953"/>
      <use xlink:href="#DejaVuSans-64" x="518.400391"/>
      <use xlink:href="#DejaVuSans-69" x="581.876953"/>
      <use xlink:href="#DejaVuSans-6f" x="609.660156"/>
     </g>
    </g>
    <g id="text_17">
     <!-- 1e−5 -->
     <g transform="translate(90 48.84) scale(0.1 -0.1)">
      <defs>
       <path id="DejaVuSans-2212" d="M 678 2272 
L 4684 2272 
L 4684 1741 
L 678 1741 
L 678 2272 
z
" transform="scale(0.015625)"/>
      </defs>
      <use xlink:href="#DejaVuSans-31"/>
      <use xlink:href="#DejaVuSans-65" x="63.623047"/>
      <use xlink:href="#DejaVuSans-2212" x="125.146484"/>
      <use xlink:href="#DejaVuSans-35" x="208.935547"/>
     </g>
    </g>
   </g>
   <g id="line2d_29">
    <path d="M 115.363636 332.693507 
L 126.636364 319.682816 
L 137.909091 314.951656 
L 149.181818 313.374602 
L 160.454545 307.460652 
L 171.727273 304.306545 
L 183 294.449961 
L 194.272727 289.718801 
L 205.545455 288.53601 
L 216.818182 288.141747 
L 228.090909 270.005632 
L 239.363636 288.930274 
L 250.636364 247.926884 
L 261.909091 241.224407 
L 273.181818 254.629361 
L 284.454545 288.53601 
L 295.727273 271.188422 
L 307 221.511239 
L 318.272727 245.16704 
L 329.545455 227.030926 
L 340.818182 232.156349 
L 352.090909 224.665346 
L 363.363636 193.124276 
L 374.636364 187.998853 
L 385.909091 189.970169 
L 397.181818 191.941486 
L 408.454545 189.575906 
L 419.727273 187.998853 
L 431 180.113585 
L 442.272727 199.038227 
L 453.545455 162.371734 
L 464.818182 197.06691 
L 476.090909 141.475776 
L 487.363636 144.629883 
L 498.636364 152.51515 
L 509.909091 146.601199 
L 521.181818 126.493768 
L 532.454545 140.687249 
L 543.727273 130.042138 
L 555 153.303677 
L 566.272727 107.174863 
L 577.545455 116.637184 
L 588.818182 96.529752 
L 600.090909 106.7806 
L 611.363636 93.769909 
L 622.636364 66.96 
" clip-path="url(#p903754755f)" style="fill: none; stroke: #1f77b4; stroke-width: 1.5; stroke-linecap: square"/>
    <defs>
     <path id="m72a4db81e3" d="M 0 3 
C 0.795609 3 1.55874 2.683901 2.12132 2.12132 
C 2.683901 1.55874 3 0.795609 3 0 
C 3 -0.795609 2.683901 -1.55874 2.12132 -2.12132 
C 1.55874 -2.683901 0.795609 -3 0 -3 
C -0.795609 -3 -1.55874 -2.683901 -2.12132 -2.12132 
C -2.683901 -1.55874 -3 -0.795609 -3 0 
C -3 0.795609 -2.683901 1.55874 -2.12132 2.12132 
C -1.55874 2.683901 -0.795609 3 0 3 
z
" style="stroke: #1f77b4"/>
    </defs>
    <g clip-path="url(#p903754755f)">
     <use xlink:href="#m72a4db81e3" x="115.363636" y="332.693507" style="fill: #1f77b4; stroke: #1f77b4"/>
     <use xlink:href="#m72a4db81e3" x="126.636364" y="319.682816" style="fill: #1f77b4; stroke: #1f77b4"/>
     <use xlink:href="#m72a4db81e3" x="137.909091" y="314.951656" style="fill: #1f77b4; stroke: #1f77b4"/>
     <use xlink:href="#m72a4db81e3" x="149.181818" y="313.374602" style="fill: #1f77b4; stroke: #1f77b4"/>
     <use xlink:href="#m72a4db81e3" x="160.454545" y="307.460652" style="fill: #1f77b4; stroke: #1f77b4"/>
     <use xlink:href="#m72a4db81e3" x="171.727273" y="304.306545" style="fill: #1f77b4; stroke: #1f77b4"/>
     <use xlink:href="#m72a4db81e3" x="183" y="294.449961" style="fill: #1f77b4; stroke: #1f77b4"/>
     <use xlink:href="#m72a4db81e3" x="194.272727" y="289.718801" style="fill: #1f77b4; stroke: #1f77b4"/>
     <use xlink:href="#m72a4db81e3" x="205.545455" y="288.53601" style="fill: #1f77b4; stroke: #1f77b4"/>
     <use xlink:href="#m72a4db81e3" x="216.818182" y="288.141747" style="fill: #1f77b4; stroke: #1f77b4"/>
     <use xlink:href="#m72a4db81e3" x="228.090909" y="270.005632" style="fill: #1f77b4; stroke: #1f77b4"/>
     <use xlink:href="#m72a4db81e3" x="239.363636" y="288.930274" style="fill: #1f77b4; stroke: #1f77b4"/>
     <use xlink:href="#m72a4db81e3" x="250.636364" y="247.926884" style="fill: #1f77b4; stroke: #1f77b4"/>
     <use xlink:href="#m72a4db81e3" x="261.909091" y="241.224407" style="fill: #1f77b4; stroke: #1f77b4"/>
     <use xlink:href="#m72a4db81e3" x="273.181818" y="254.629361" style="fill: #1f77b4; stroke: #1f77b4"/>
     <use xlink:href="#m72a4db81e3" x="284.454545" y="288.53601" style="fill: #1f77b4; stroke: #1f77b4"/>
     <use xlink:href="#m72a4db81e3" x="295.727273" y="271.188422" style="fill: #1f77b4; stroke: #1f77b4"/>
     <use xlink:href="#m72a4db81e3" x="307" y="221.511239" style="fill: #1f77b4; stroke: #1f77b4"/>
     <use xlink:href="#m72a4db81e3" x="318.272727" y="245.16704" style="fill: #1f77b4; stroke: #1f77b4"/>
     <use xlink:href="#m72a4db81e3" x="329.545455" y="227.030926" style="fill: #1f77b4; stroke: #1f77b4"/>
     <use xlink:href="#m72a4db81e3" x="340.818182" y="232.156349" style="fill: #1f77b4; stroke: #1f77b4"/>
     <use xlink:href="#m72a4db81e3" x="352.090909" y="224.665346" style="fill: #1f77b4; stroke: #1f77b4"/>
     <use xlink:href="#m72a4db81e3" x="363.363636" y="193.124276" style="fill: #1f77b4; stroke: #1f77b4"/>
     <use xlink:href="#m72a4db81e3" x="374.636364" y="187.998853" style="fill: #1f77b4; stroke: #1f77b4"/>
     <use xlink:href="#m72a4db81e3" x="385.909091" y="189.970169" style="fill: #1f77b4; stroke: #1f77b4"/>
     <use xlink:href="#m72a4db81e3" x="397.181818" y="191.941486" style="fill: #1f77b4; stroke: #1f77b4"/>
     <use xlink:href="#m72a4db81e3" x="408.454545" y="189.575906" style="fill: #1f77b4; stroke: #1f77b4"/>
     <use xlink:href="#m72a4db81e3" x="419.727273" y="187.998853" style="fill: #1f77b4; stroke: #1f77b4"/>
     <use xlink:href="#m72a4db81e3" x="431" y="180.113585" style="fill: #1f77b4; stroke: #1f77b4"/>
     <use xlink:href="#m72a4db81e3" x="442.272727" y="199.038227" style="fill: #1f77b4; stroke: #1f77b4"/>
     <use xlink:href="#m72a4db81e3" x="453.545455" y="162.371734" style="fill: #1f77b4; stroke: #1f77b4"/>
     <use xlink:href="#m72a4db81e3" x="464.818182" y="197.06691" style="fill: #1f77b4; stroke: #1f77b4"/>
     <use xlink:href="#m72a4db81e3" x="476.090909" y="141.475776" style="fill: #1f77b4; stroke: #1f77b4"/>
     <use xlink:href="#m72a4db81e3" x="487.363636" y="144.629883" style="fill: #1f77b4; stroke: #1f77b4"/>
     <use xlink:href="#m72a4db81e3" x="498.636364" y="152.51515" style="fill: #1f77b4; stroke: #1f77b4"/>
     <use xlink:href="#m72a4db81e3" x="509.909091" y="146.601199" style="fill: #1f77b4; stroke: #1f77b4"/>
     <use xlink:href="#m72a4db81e3" x="521.181818" y="126.493768" style="fill: #1f77b4; stroke: #1f77b4"/>
     <use xlink:href="#m72a4db81e3" x="532.454545" y="140.687249" style="fill: #1f77b4; stroke: #1f77b4"/>
     <use xlink:href="#m72a4db81e3" x="543.727273" y="130.042138" style="fill: #1f77b4; stroke: #1f77b4"/>
     <use xlink:href="#m72a4db81e3" x="555" y="153.303677" style="fill: #1f77b4; stroke: #1f77b4"/>
     <use xlink:href="#m72a4db81e3" x="566.272727" y="107.174863" style="fill: #1f77b4; stroke: #1f77b4"/>
     <use xlink:href="#m72a4db81e3" x="577.545455" y="116.637184" style="fill: #1f77b4; stroke: #1f77b4"/>
     <use xlink:href="#m72a4db81e3" x="588.818182" y="96.529752" style="fill: #1f77b4; stroke: #1f77b4"/>
     <use xlink:href="#m72a4db81e3" x="600.090909" y="106.7806" style="fill: #1f77b4; stroke: #1f77b4"/>
     <use xlink:href="#m72a4db81e3" x="611.363636" y="93.769909" style="fill: #1f77b4; stroke: #1f77b4"/>
     <use xlink:href="#m72a4db81e3" x="622.636364" y="66.96" style="fill: #1f77b4; stroke: #1f77b4"/>
    </g>
   </g>
   <g id="line2d_30">
    <path d="M 115.363636 353.983729 
L 126.636364 363.840313 
L 137.909091 357.532099 
L 149.181818 354.377992 
L 160.454545 354.377992 
L 171.727273 351.618149 
L 183 352.406675 
L 194.272727 350.829622 
L 205.545455 348.858305 
L 216.818182 349.646832 
L 228.090909 357.926362 
L 239.363636 335.453351 
L 250.636364 369.36 
L 261.909091 369.36 
L 273.181818 355.955046 
L 284.454545 312.586076 
L 295.727273 327.568083 
L 307 369.36 
L 318.272727 339.790248 
L 329.545455 352.012412 
L 340.818182 337.030404 
L 352.090909 343.732881 
L 363.363636 369.36 
L 374.636364 369.36 
L 385.909091 360.291943 
L 397.181818 349.646832 
L 408.454545 350.041095 
L 419.727273 338.607458 
L 431 348.858305 
L 442.272727 327.568083 
L 453.545455 359.109153 
L 464.818182 310.220495 
L 476.090909 369.36 
L 487.363636 357.926362 
L 498.636364 344.915671 
L 509.909091 345.309935 
L 521.181818 356.743572 
L 532.454545 343.732881 
L 543.727273 343.338618 
L 555 315.345919 
L 566.272727 355.560782 
L 577.545455 339.790248 
L 588.818182 355.560782 
L 600.090909 341.367301 
L 611.363636 343.732881 
L 622.636364 369.36 
" clip-path="url(#p903754755f)" style="fill: none; stroke: #ff7f0e; stroke-width: 1.5; stroke-linecap: square"/>
    <defs>
     <path id="mcdb4dea3b1" d="M 0 3 
C 0.795609 3 1.55874 2.683901 2.12132 2.12132 
C 2.683901 1.55874 3 0.795609 3 0 
C 3 -0.795609 2.683901 -1.55874 2.12132 -2.12132 
C 1.55874 -2.683901 0.795609 -3 0 -3 
C -0.795609 -3 -1.55874 -2.683901 -2.12132 -2.12132 
C -2.683901 -1.55874 -3 -0.795609 -3 0 
C -3 0.795609 -2.683901 1.55874 -2.12132 2.12132 
C -1.55874 2.683901 -0.795609 3 0 3 
z
" style="stroke: #ff7f0e"/>
    </defs>
    <g clip-path="url(#p903754755f)">
     <use xlink:href="#mcdb4dea3b1" x="115.363636" y="353.983729" style="fill: #ff7f0e; stroke: #ff7f0e"/>
     <use xlink:href="#mcdb4dea3b1" x="126.636364" y="363.840313" style="fill: #ff7f0e; stroke: #ff7f0e"/>
     <use xlink:href="#mcdb4dea3b1" x="137.909091" y="357.532099" style="fill: #ff7f0e; stroke: #ff7f0e"/>
     <use xlink:href="#mcdb4dea3b1" x="149.181818" y="354.377992" style="fill: #ff7f0e; stroke: #ff7f0e"/>
     <use xlink:href="#mcdb4dea3b1" x="160.454545" y="354.377992" style="fill: #ff7f0e; stroke: #ff7f0e"/>
     <use xlink:href="#mcdb4dea3b1" x="171.727273" y="351.618149" style="fill: #ff7f0e; stroke: #ff7f0e"/>
     <use xlink:href="#mcdb4dea3b1" x="183" y="352.406675" style="fill: #ff7f0e; stroke: #ff7f0e"/>
     <use xlink:href="#mcdb4dea3b1" x="194.272727" y="350.829622" style="fill: #ff7f0e; stroke: #ff7f0e"/>
     <use xlink:href="#mcdb4dea3b1" x="205.545455" y="348.858305" style="fill: #ff7f0e; stroke: #ff7f0e"/>
     <use xlink:href="#mcdb4dea3b1" x="216.818182" y="349.646832" style="fill: #ff7f0e; stroke: #ff7f0e"/>
     <use xlink:href="#mcdb4dea3b1" x="228.090909" y="357.926362" style="fill: #ff7f0e; stroke: #ff7f0e"/>
     <use xlink:href="#mcdb4dea3b1" x="239.363636" y="335.453351" style="fill: #ff7f0e; stroke: #ff7f0e"/>
     <use xlink:href="#mcdb4dea3b1" x="250.636364" y="369.36" style="fill: #ff7f0e; stroke: #ff7f0e"/>
     <use xlink:href="#mcdb4dea3b1" x="261.909091" y="369.36" style="fill: #ff7f0e; stroke: #ff7f0e"/>
     <use xlink:href="#mcdb4dea3b1" x="273.181818" y="355.955046" style="fill: #ff7f0e; stroke: #ff7f0e"/>
     <use xlink:href="#mcdb4dea3b1" x="284.454545" y="312.586076" style="fill: #ff7f0e; stroke: #ff7f0e"/>
     <use xlink:href="#mcdb4dea3b1" x="295.727273" y="327.568083" style="fill: #ff7f0e; stroke: #ff7f0e"/>
     <use xlink:href="#mcdb4dea3b1" x="307" y="369.36" style="fill: #ff7f0e; stroke: #ff7f0e"/>
     <use xlink:href="#mcdb4dea3b1" x="318.272727" y="339.790248" style="fill: #ff7f0e; stroke: #ff7f0e"/>
     <use xlink:href="#mcdb4dea3b1" x="329.545455" y="352.012412" style="fill: #ff7f0e; stroke: #ff7f0e"/>
     <use xlink:href="#mcdb4dea3b1" x="340.818182" y="337.030404" style="fill: #ff7f0e; stroke: #ff7f0e"/>
     <use xlink:href="#mcdb4dea3b1" x="352.090909" y="343.732881" style="fill: #ff7f0e; stroke: #ff7f0e"/>
     <use xlink:href="#mcdb4dea3b1" x="363.363636" y="369.36" style="fill: #ff7f0e; stroke: #ff7f0e"/>
     <use xlink:href="#mcdb4dea3b1" x="374.636364" y="369.36" style="fill: #ff7f0e; stroke: #ff7f0e"/>
     <use xlink:href="#mcdb4dea3b1" x="385.909091" y="360.291943" style="fill: #ff7f0e; stroke: #ff7f0e"/>
     <use xlink:href="#mcdb4dea3b1" x="397.181818" y="349.646832" style="fill: #ff7f0e; stroke: #ff7f0e"/>
     <use xlink:href="#mcdb4dea3b1" x="408.454545" y="350.041095" style="fill: #ff7f0e; stroke: #ff7f0e"/>
     <use xlink:href="#mcdb4dea3b1" x="419.727273" y="338.607458" style="fill: #ff7f0e; stroke: #ff7f0e"/>
     <use xlink:href="#mcdb4dea3b1" x="431" y="348.858305" style="fill: #ff7f0e; stroke: #ff7f0e"/>
     <use xlink:href="#mcdb4dea3b1" x="442.272727" y="327.568083" style="fill: #ff7f0e; stroke: #ff7f0e"/>
     <use xlink:href="#mcdb4dea3b1" x="453.545455" y="359.109153" style="fill: #ff7f0e; stroke: #ff7f0e"/>
     <use xlink:href="#mcdb4dea3b1" x="464.818182" y="310.220495" style="fill: #ff7f0e; stroke: #ff7f0e"/>
     <use xlink:href="#mcdb4dea3b1" x="476.090909" y="369.36" style="fill: #ff7f0e; stroke: #ff7f0e"/>
     <use xlink:href="#mcdb4dea3b1" x="487.363636" y="357.926362" style="fill: #ff7f0e; stroke: #ff7f0e"/>
     <use xlink:href="#mcdb4dea3b1" x="498.636364" y="344.915671" style="fill: #ff7f0e; stroke: #ff7f0e"/>
     <use xlink:href="#mcdb4dea3b1" x="509.909091" y="345.309935" style="fill: #ff7f0e; stroke: #ff7f0e"/>
     <use xlink:href="#mcdb4dea3b1" x="521.181818" y="356.743572" style="fill: #ff7f0e; stroke: #ff7f0e"/>
     <use xlink:href="#mcdb4dea3b1" x="532.454545" y="343.732881" style="fill: #ff7f0e; stroke: #ff7f0e"/>
     <use xlink:href="#mcdb4dea3b1" x="543.727273" y="343.338618" style="fill: #ff7f0e; stroke: #ff7f0e"/>
     <use xlink:href="#mcdb4dea3b1" x="555" y="315.345919" style="fill: #ff7f0e; stroke: #ff7f0e"/>
     <use xlink:href="#mcdb4dea3b1" x="566.272727" y="355.560782" style="fill: #ff7f0e; stroke: #ff7f0e"/>
     <use xlink:href="#mcdb4dea3b1" x="577.545455" y="339.790248" style="fill: #ff7f0e; stroke: #ff7f0e"/>
     <use xlink:href="#mcdb4dea3b1" x="588.818182" y="355.560782" style="fill: #ff7f0e; stroke: #ff7f0e"/>
     <use xlink:href="#mcdb4dea3b1" x="600.090909" y="341.367301" style="fill: #ff7f0e; stroke: #ff7f0e"/>
     <use xlink:href="#mcdb4dea3b1" x="611.363636" y="343.732881" style="fill: #ff7f0e; stroke: #ff7f0e"/>
     <use xlink:href="#mcdb4dea3b1" x="622.636364" y="369.36" style="fill: #ff7f0e; stroke: #ff7f0e"/>
    </g>
   </g>
   <g id="line2d_31">
    <path d="M 115.363636 339.790248 
L 126.636364 333.087771 
L 137.909091 327.962347 
L 149.181818 322.44266 
L 160.454545 316.922973 
L 171.727273 311.403286 
L 183 303.912282 
L 194.272727 301.152438 
L 205.545455 294.844224 
L 216.818182 289.324537 
L 228.090909 284.199113 
L 239.363636 279.07369 
L 250.636364 273.554003 
L 261.909091 267.640052 
L 273.181818 262.514628 
L 284.454545 255.812151 
L 295.727273 251.475254 
L 307 246.744094 
L 318.272727 240.041617 
L 329.545455 234.916193 
L 340.818182 227.819452 
L 352.090909 223.876819 
L 363.363636 215.203025 
L 374.636364 212.443181 
L 385.909091 204.557914 
L 397.181818 196.672647 
L 408.454545 196.278383 
L 419.727273 184.450482 
L 431 184.450482 
L 442.272727 180.507849 
L 453.545455 175.776688 
L 464.818182 165.131578 
L 476.090909 162.765997 
L 487.363636 158.034837 
L 498.636364 153.303677 
L 509.909091 146.995463 
L 521.181818 141.475776 
L 532.454545 136.350352 
L 543.727273 128.465085 
L 555 124.128188 
L 566.272727 120.185554 
L 577.545455 111.51176 
L 588.818182 106.386336 
L 600.090909 102.443703 
L 611.363636 93.769909 
L 622.636364 92.587119 
" clip-path="url(#p903754755f)" style="fill: none; stroke: #2ca02c; stroke-width: 1.5; stroke-linecap: square"/>
    <defs>
     <path id="m65a2cf275a" d="M 0 3 
C 0.795609 3 1.55874 2.683901 2.12132 2.12132 
C 2.683901 1.55874 3 0.795609 3 0 
C 3 -0.795609 2.683901 -1.55874 2.12132 -2.12132 
C 1.55874 -2.683901 0.795609 -3 0 -3 
C -0.795609 -3 -1.55874 -2.683901 -2.12132 -2.12132 
C -2.683901 -1.55874 -3 -0.795609 -3 0 
C -3 0.795609 -2.683901 1.55874 -2.12132 2.12132 
C -1.55874 2.683901 -0.795609 3 0 3 
z
" style="stroke: #2ca02c"/>
    </defs>
    <g clip-path="url(#p903754755f)">
     <use xlink:href="#m65a2cf275a" x="115.363636" y="339.790248" style="fill: #2ca02c; stroke: #2ca02c"/>
     <use xlink:href="#m65a2cf275a" x="126.636364" y="333.087771" style="fill: #2ca02c; stroke: #2ca02c"/>
     <use xlink:href="#m65a2cf275a" x="137.909091" y="327.962347" style="fill: #2ca02c; stroke: #2ca02c"/>
     <use xlink:href="#m65a2cf275a" x="149.181818" y="322.44266" style="fill: #2ca02c; stroke: #2ca02c"/>
     <use xlink:href="#m65a2cf275a" x="160.454545" y="316.922973" style="fill: #2ca02c; stroke: #2ca02c"/>
     <use xlink:href="#m65a2cf275a" x="171.727273" y="311.403286" style="fill: #2ca02c; stroke: #2ca02c"/>
     <use xlink:href="#m65a2cf275a" x="183" y="303.912282" style="fill: #2ca02c; stroke: #2ca02c"/>
     <use xlink:href="#m65a2cf275a" x="194.272727" y="301.152438" style="fill: #2ca02c; stroke: #2ca02c"/>
     <use xlink:href="#m65a2cf275a" x="205.545455" y="294.844224" style="fill: #2ca02c; stroke: #2ca02c"/>
     <use xlink:href="#m65a2cf275a" x="216.818182" y="289.324537" style="fill: #2ca02c; stroke: #2ca02c"/>
     <use xlink:href="#m65a2cf275a" x="228.090909" y="284.199113" style="fill: #2ca02c; stroke: #2ca02c"/>
     <use xlink:href="#m65a2cf275a" x="239.363636" y="279.07369" style="fill: #2ca02c; stroke: #2ca02c"/>
     <use xlink:href="#m65a2cf275a" x="250.636364" y="273.554003" style="fill: #2ca02c; stroke: #2ca02c"/>
     <use xlink:href="#m65a2cf275a" x="261.909091" y="267.640052" style="fill: #2ca02c; stroke: #2ca02c"/>
     <use xlink:href="#m65a2cf275a" x="273.181818" y="262.514628" style="fill: #2ca02c; stroke: #2ca02c"/>
     <use xlink:href="#m65a2cf275a" x="284.454545" y="255.812151" style="fill: #2ca02c; stroke: #2ca02c"/>
     <use xlink:href="#m65a2cf275a" x="295.727273" y="251.475254" style="fill: #2ca02c; stroke: #2ca02c"/>
     <use xlink:href="#m65a2cf275a" x="307" y="246.744094" style="fill: #2ca02c; stroke: #2ca02c"/>
     <use xlink:href="#m65a2cf275a" x="318.272727" y="240.041617" style="fill: #2ca02c; stroke: #2ca02c"/>
     <use xlink:href="#m65a2cf275a" x="329.545455" y="234.916193" style="fill: #2ca02c; stroke: #2ca02c"/>
     <use xlink:href="#m65a2cf275a" x="340.818182" y="227.819452" style="fill: #2ca02c; stroke: #2ca02c"/>
     <use xlink:href="#m65a2cf275a" x="352.090909" y="223.876819" style="fill: #2ca02c; stroke: #2ca02c"/>
     <use xlink:href="#m65a2cf275a" x="363.363636" y="215.203025" style="fill: #2ca02c; stroke: #2ca02c"/>
     <use xlink:href="#m65a2cf275a" x="374.636364" y="212.443181" style="fill: #2ca02c; stroke: #2ca02c"/>
     <use xlink:href="#m65a2cf275a" x="385.909091" y="204.557914" style="fill: #2ca02c; stroke: #2ca02c"/>
     <use xlink:href="#m65a2cf275a" x="397.181818" y="196.672647" style="fill: #2ca02c; stroke: #2ca02c"/>
     <use xlink:href="#m65a2cf275a" x="408.454545" y="196.278383" style="fill: #2ca02c; stroke: #2ca02c"/>
     <use xlink:href="#m65a2cf275a" x="419.727273" y="184.450482" style="fill: #2ca02c; stroke: #2ca02c"/>
     <use xlink:href="#m65a2cf275a" x="431" y="184.450482" style="fill: #2ca02c; stroke: #2ca02c"/>
     <use xlink:href="#m65a2cf275a" x="442.272727" y="180.507849" style="fill: #2ca02c; stroke: #2ca02c"/>
     <use xlink:href="#m65a2cf275a" x="453.545455" y="175.776688" style="fill: #2ca02c; stroke: #2ca02c"/>
     <use xlink:href="#m65a2cf275a" x="464.818182" y="165.131578" style="fill: #2ca02c; stroke: #2ca02c"/>
     <use xlink:href="#m65a2cf275a" x="476.090909" y="162.765997" style="fill: #2ca02c; stroke: #2ca02c"/>
     <use xlink:href="#m65a2cf275a" x="487.363636" y="158.034837" style="fill: #2ca02c; stroke: #2ca02c"/>
     <use xlink:href="#m65a2cf275a" x="498.636364" y="153.303677" style="fill: #2ca02c; stroke: #2ca02c"/>
     <use xlink:href="#m65a2cf275a" x="509.909091" y="146.995463" style="fill: #2ca02c; stroke: #2ca02c"/>
     <use xlink:href="#m65a2cf275a" x="521.181818" y="141.475776" style="fill: #2ca02c; stroke: #2ca02c"/>
     <use xlink:href="#m65a2cf275a" x="532.454545" y="136.350352" style="fill: #2ca02c; stroke: #2ca02c"/>
     <use xlink:href="#m65a2cf275a" x="543.727273" y="128.465085" style="fill: #2ca02c; stroke: #2ca02c"/>
     <use xlink:href="#m65a2cf275a" x="555" y="124.128188" style="fill: #2ca02c; stroke: #2ca02c"/>
     <use xlink:href="#m65a2cf275a" x="566.272727" y="120.185554" style="fill: #2ca02c; stroke: #2ca02c"/>
     <use xlink:href="#m65a2cf275a" x="577.545455" y="111.51176" style="fill: #2ca02c; stroke: #2ca02c"/>
     <use xlink:href="#m65a2cf275a" x="588.818182" y="106.386336" style="fill: #2ca02c; stroke: #2ca02c"/>
     <use xlink:href="#m65a2cf275a" x="600.090909" y="102.443703" style="fill: #2ca02c; stroke: #2ca02c"/>
     <use xlink:href="#m65a2cf275a" x="611.363636" y="93.769909" style="fill: #2ca02c; stroke: #2ca02c"/>
     <use xlink:href="#m65a2cf275a" x="622.636364" y="92.587119" style="fill: #2ca02c; stroke: #2ca02c"/>
    </g>
   </g>
   <g id="patch_3">
    <path d="M 90 384.48 
L 90 51.84 
" style="fill: none; stroke: #000000; stroke-width: 0.8; stroke-linejoin: miter; stroke-linecap: square"/>
   </g>
   <g id="patch_4">
    <path d="M 648 384.48 
L 648 51.84 
" style="fill: none; stroke: #000000; stroke-width: 0.8; stroke-linejoin: miter; stroke-linecap: square"/>
   </g>
   <g id="patch_5">
    <path d="M 90 384.48 
L 648 384.48 
" style="fill: none; stroke: #000000; stroke-width: 0.8; stroke-linejoin: miter; stroke-linecap: square"/>
   </g>
   <g id="patch_6">
    <path d="M 90 51.84 
L 648 51.84 
" style="fill: none; stroke: #000000; stroke-width: 0.8; stroke-linejoin: miter; stroke-linecap: square"/>
   </g>
   <g id="text_18">
    <!-- Tempo médio pelo Número de Entradas (Dyn) -->
    <g transform="translate(231.687187 45.84) scale(0.12 -0.12)">
     <defs>
      <path id="DejaVuSans-6c" d="M 603 4863 
L 1178 4863 
L 1178 0 
L 603 0 
L 603 4863 
z
" transform="scale(0.015625)"/>
      <path id="DejaVuSans-4e" d="M 628 4666 
L 1478 4666 
L 3547 763 
L 3547 4666 
L 4159 4666 
L 4159 0 
L 3309 0 
L 1241 3903 
L 1241 0 
L 628 0 
L 628 4666 
z
" transform="scale(0.015625)"/>
      <path id="DejaVuSans-fa" d="M 544 1381 
L 544 3500 
L 1119 3500 
L 1119 1403 
Q 1119 906 1312 657 
Q 1506 409 1894 409 
Q 2359 409 2629 706 
Q 2900 1003 2900 1516 
L 2900 3500 
L 3475 3500 
L 3475 0 
L 2900 0 
L 2900 538 
Q 2691 219 2414 64 
Q 2138 -91 1772 -91 
Q 1169 -91 856 284 
Q 544 659 544 1381 
z
M 1991 3584 
L 1991 3584 
z
M 2419 5119 
L 3041 5119 
L 2022 3944 
L 1544 3944 
L 2419 5119 
z
" transform="scale(0.015625)"/>
      <path id="DejaVuSans-44" d="M 1259 4147 
L 1259 519 
L 2022 519 
Q 2988 519 3436 956 
Q 3884 1394 3884 2338 
Q 3884 3275 3436 3711 
Q 2988 4147 2022 4147 
L 1259 4147 
z
M 628 4666 
L 1925 4666 
Q 3281 4666 3915 4102 
Q 4550 3538 4550 2338 
Q 4550 1131 3912 565 
Q 3275 0 1925 0 
L 628 0 
L 628 4666 
z
" transform="scale(0.015625)"/>
      <path id="DejaVuSans-79" d="M 2059 -325 
Q 1816 -950 1584 -1140 
Q 1353 -1331 966 -1331 
L 506 -1331 
L 506 -850 
L 844 -850 
Q 1081 -850 1212 -737 
Q 1344 -625 1503 -206 
L 1606 56 
L 191 3500 
L 800 3500 
L 1894 763 
L 2988 3500 
L 3597 3500 
L 2059 -325 
z
" transform="scale(0.015625)"/>
     </defs>
     <use xlink:href="#DejaVuSans-54"/>
     <use xlink:href="#DejaVuSans-65" x="44.083984"/>
     <use xlink:href="#DejaVuSans-6d" x="105.607422"/>
     <use xlink:href="#DejaVuSans-70" x="203.019531"/>
     <use xlink:href="#DejaVuSans-6f" x="266.496094"/>
     <use xlink:href="#DejaVuSans-20" x="327.677734"/>
     <use xlink:href="#DejaVuSans-6d" x="359.464844"/>
     <use xlink:href="#DejaVuSans-e9" x="456.876953"/>
     <use xlink:href="#DejaVuSans-64" x="518.400391"/>
     <use xlink:href="#DejaVuSans-69" x="581.876953"/>
     <use xlink:href="#DejaVuSans-6f" x="609.660156"/>
     <use xlink:href="#DejaVuSans-20" x="670.841797"/>
     <use xlink:href="#DejaVuSans-70" x="702.628906"/>
     <use xlink:href="#DejaVuSans-65" x="766.105469"/>
     <use xlink:href="#DejaVuSans-6c" x="827.628906"/>
     <use xlink:href="#DejaVuSans-6f" x="855.412109"/>
     <use xlink:href="#DejaVuSans-20" x="916.59375"/>
     <use xlink:href="#DejaVuSans-4e" x="948.380859"/>
     <use xlink:href="#DejaVuSans-fa" x="1023.185547"/>
     <use xlink:href="#DejaVuSans-6d" x="1086.564453"/>
     <use xlink:href="#DejaVuSans-65" x="1183.976562"/>
     <use xlink:href="#DejaVuSans-72" x="1245.5"/>
     <use xlink:href="#DejaVuSans-6f" x="1284.363281"/>
     <use xlink:href="#DejaVuSans-20" x="1345.544922"/>
     <use xlink:href="#DejaVuSans-64" x="1377.332031"/>
     <use xlink:href="#DejaVuSans-65" x="1440.808594"/>
     <use xlink:href="#DejaVuSans-20" x="1502.332031"/>
     <use xlink:href="#DejaVuSans-45" x="1534.119141"/>
     <use xlink:href="#DejaVuSans-6e" x="1597.302734"/>
     <use xlink:href="#DejaVuSans-74" x="1660.681641"/>
     <use xlink:href="#DejaVuSans-72" x="1699.890625"/>
     <use xlink:href="#DejaVuSans-61" x="1741.003906"/>
     <use xlink:href="#DejaVuSans-64" x="1802.283203"/>
     <use xlink:href="#DejaVuSans-61" x="1865.759766"/>
     <use xlink:href="#DejaVuSans-73" x="1927.039062"/>
     <use xlink:href="#DejaVuSans-20" x="1979.138672"/>
     <use xlink:href="#DejaVuSans-28" x="2010.925781"/>
     <use xlink:href="#DejaVuSans-44" x="2049.939453"/>
     <use xlink:href="#DejaVuSans-79" x="2126.941406"/>
     <use xlink:href="#DejaVuSans-6e" x="2186.121094"/>
     <use xlink:href="#DejaVuSans-29" x="2249.5"/>
    </g>
   </g>
   <g id="legend_1">
    <g id="patch_7">
     <path d="M 97 104.674375 
L 220.904688 104.674375 
Q 222.904688 104.674375 222.904688 102.674375 
L 222.904688 58.84 
Q 222.904688 56.84 220.904688 56.84 
L 97 56.84 
Q 95 56.84 95 58.84 
L 95 102.674375 
Q 95 104.674375 97 104.674375 
z
" style="fill: #ffffff; opacity: 0.8; stroke: #cccccc; stroke-linejoin: miter"/>
    </g>
    <g id="line2d_32">
     <path d="M 99 65.338437 
L 109 65.338437 
L 119 65.338437 
" style="fill: none; stroke: #1f77b4; stroke-width: 1.5; stroke-linecap: square"/>
     <g>
      <use xlink:href="#m72a4db81e3" x="109" y="65.338437" style="fill: #1f77b4; stroke: #1f77b4"/>
     </g>
    </g>
    <g id="text_19">
     <!-- Tempo de Usuário -->
     <g transform="translate(127 68.838437) scale(0.1 -0.1)">
      <defs>
       <path id="DejaVuSans-55" d="M 556 4666 
L 1191 4666 
L 1191 1831 
Q 1191 1081 1462 751 
Q 1734 422 2344 422 
Q 2950 422 3222 751 
Q 3494 1081 3494 1831 
L 3494 4666 
L 4128 4666 
L 4128 1753 
Q 4128 841 3676 375 
Q 3225 -91 2344 -91 
Q 1459 -91 1007 375 
Q 556 841 556 1753 
L 556 4666 
z
" transform="scale(0.015625)"/>
       <path id="DejaVuSans-75" d="M 544 1381 
L 544 3500 
L 1119 3500 
L 1119 1403 
Q 1119 906 1312 657 
Q 1506 409 1894 409 
Q 2359 409 2629 706 
Q 2900 1003 2900 1516 
L 2900 3500 
L 3475 3500 
L 3475 0 
L 2900 0 
L 2900 538 
Q 2691 219 2414 64 
Q 2138 -91 1772 -91 
Q 1169 -91 856 284 
Q 544 659 544 1381 
z
M 1991 3584 
L 1991 3584 
z
" transform="scale(0.015625)"/>
       <path id="DejaVuSans-e1" d="M 2194 1759 
Q 1497 1759 1228 1600 
Q 959 1441 959 1056 
Q 959 750 1161 570 
Q 1363 391 1709 391 
Q 2188 391 2477 730 
Q 2766 1069 2766 1631 
L 2766 1759 
L 2194 1759 
z
M 3341 1997 
L 3341 0 
L 2766 0 
L 2766 531 
Q 2569 213 2275 61 
Q 1981 -91 1556 -91 
Q 1019 -91 701 211 
Q 384 513 384 1019 
Q 384 1609 779 1909 
Q 1175 2209 1959 2209 
L 2766 2209 
L 2766 2266 
Q 2766 2663 2505 2880 
Q 2244 3097 1772 3097 
Q 1472 3097 1187 3025 
Q 903 2953 641 2809 
L 641 3341 
Q 956 3463 1253 3523 
Q 1550 3584 1831 3584 
Q 2591 3584 2966 3190 
Q 3341 2797 3341 1997 
z
M 2291 5119 
L 2913 5119 
L 1894 3944 
L 1416 3944 
L 2291 5119 
z
" transform="scale(0.015625)"/>
      </defs>
      <use xlink:href="#DejaVuSans-54"/>
      <use xlink:href="#DejaVuSans-65" x="44.083984"/>
      <use xlink:href="#DejaVuSans-6d" x="105.607422"/>
      <use xlink:href="#DejaVuSans-70" x="203.019531"/>
      <use xlink:href="#DejaVuSans-6f" x="266.496094"/>
      <use xlink:href="#DejaVuSans-20" x="327.677734"/>
      <use xlink:href="#DejaVuSans-64" x="359.464844"/>
      <use xlink:href="#DejaVuSans-65" x="422.941406"/>
      <use xlink:href="#DejaVuSans-20" x="484.464844"/>
      <use xlink:href="#DejaVuSans-55" x="516.251953"/>
      <use xlink:href="#DejaVuSans-73" x="589.445312"/>
      <use xlink:href="#DejaVuSans-75" x="641.544922"/>
      <use xlink:href="#DejaVuSans-e1" x="704.923828"/>
      <use xlink:href="#DejaVuSans-72" x="766.203125"/>
      <use xlink:href="#DejaVuSans-69" x="807.316406"/>
      <use xlink:href="#DejaVuSans-6f" x="835.099609"/>
     </g>
    </g>
    <g id="line2d_33">
     <path d="M 99 80.016563 
L 109 80.016563 
L 119 80.016563 
" style="fill: none; stroke: #ff7f0e; stroke-width: 1.5; stroke-linecap: square"/>
     <g>
      <use xlink:href="#mcdb4dea3b1" x="109" y="80.016563" style="fill: #ff7f0e; stroke: #ff7f0e"/>
     </g>
    </g>
    <g id="text_20">
     <!-- Tempo de Sistema -->
     <g transform="translate(127 83.516563) scale(0.1 -0.1)">
      <defs>
       <path id="DejaVuSans-53" d="M 3425 4513 
L 3425 3897 
Q 3066 4069 2747 4153 
Q 2428 4238 2131 4238 
Q 1616 4238 1336 4038 
Q 1056 3838 1056 3469 
Q 1056 3159 1242 3001 
Q 1428 2844 1947 2747 
L 2328 2669 
Q 3034 2534 3370 2195 
Q 3706 1856 3706 1288 
Q 3706 609 3251 259 
Q 2797 -91 1919 -91 
Q 1588 -91 1214 -16 
Q 841 59 441 206 
L 441 856 
Q 825 641 1194 531 
Q 1563 422 1919 422 
Q 2459 422 2753 634 
Q 3047 847 3047 1241 
Q 3047 1584 2836 1778 
Q 2625 1972 2144 2069 
L 1759 2144 
Q 1053 2284 737 2584 
Q 422 2884 422 3419 
Q 422 4038 858 4394 
Q 1294 4750 2059 4750 
Q 2388 4750 2728 4690 
Q 3069 4631 3425 4513 
z
" transform="scale(0.015625)"/>
      </defs>
      <use xlink:href="#DejaVuSans-54"/>
      <use xlink:href="#DejaVuSans-65" x="44.083984"/>
      <use xlink:href="#DejaVuSans-6d" x="105.607422"/>
      <use xlink:href="#DejaVuSans-70" x="203.019531"/>
      <use xlink:href="#DejaVuSans-6f" x="266.496094"/>
      <use xlink:href="#DejaVuSans-20" x="327.677734"/>
      <use xlink:href="#DejaVuSans-64" x="359.464844"/>
      <use xlink:href="#DejaVuSans-65" x="422.941406"/>
      <use xlink:href="#DejaVuSans-20" x="484.464844"/>
      <use xlink:href="#DejaVuSans-53" x="516.251953"/>
      <use xlink:href="#DejaVuSans-69" x="579.728516"/>
      <use xlink:href="#DejaVuSans-73" x="607.511719"/>
      <use xlink:href="#DejaVuSans-74" x="659.611328"/>
      <use xlink:href="#DejaVuSans-65" x="698.820312"/>
      <use xlink:href="#DejaVuSans-6d" x="760.34375"/>
      <use xlink:href="#DejaVuSans-61" x="857.755859"/>
     </g>
    </g>
    <g id="line2d_34">
     <path d="M 99 95.094688 
L 109 95.094688 
L 119 95.094688 
" style="fill: none; stroke: #2ca02c; stroke-width: 1.5; stroke-linecap: square"/>
     <g>
      <use xlink:href="#m65a2cf275a" x="109" y="95.094688" style="fill: #2ca02c; stroke: #2ca02c"/>
     </g>
    </g>
    <g id="text_21">
     <!-- Tempo de Relógio -->
     <g transform="translate(127 98.594688) scale(0.1 -0.1)">
      <defs>
       <path id="DejaVuSans-52" d="M 2841 2188 
Q 3044 2119 3236 1894 
Q 3428 1669 3622 1275 
L 4263 0 
L 3584 0 
L 2988 1197 
Q 2756 1666 2539 1819 
Q 2322 1972 1947 1972 
L 1259 1972 
L 1259 0 
L 628 0 
L 628 4666 
L 2053 4666 
Q 2853 4666 3247 4331 
Q 3641 3997 3641 3322 
Q 3641 2881 3436 2590 
Q 3231 2300 2841 2188 
z
M 1259 4147 
L 1259 2491 
L 2053 2491 
Q 2509 2491 2742 2702 
Q 2975 2913 2975 3322 
Q 2975 3731 2742 3939 
Q 2509 4147 2053 4147 
L 1259 4147 
z
" transform="scale(0.015625)"/>
       <path id="DejaVuSans-f3" d="M 1959 3097 
Q 1497 3097 1228 2736 
Q 959 2375 959 1747 
Q 959 1119 1226 758 
Q 1494 397 1959 397 
Q 2419 397 2687 759 
Q 2956 1122 2956 1747 
Q 2956 2369 2687 2733 
Q 2419 3097 1959 3097 
z
M 1959 3584 
Q 2709 3584 3137 3096 
Q 3566 2609 3566 1747 
Q 3566 888 3137 398 
Q 2709 -91 1959 -91 
Q 1206 -91 779 398 
Q 353 888 353 1747 
Q 353 2609 779 3096 
Q 1206 3584 1959 3584 
z
M 2394 5119 
L 3016 5119 
L 1997 3944 
L 1519 3944 
L 2394 5119 
z
" transform="scale(0.015625)"/>
       <path id="DejaVuSans-67" d="M 2906 1791 
Q 2906 2416 2648 2759 
Q 2391 3103 1925 3103 
Q 1463 3103 1205 2759 
Q 947 2416 947 1791 
Q 947 1169 1205 825 
Q 1463 481 1925 481 
Q 2391 481 2648 825 
Q 2906 1169 2906 1791 
z
M 3481 434 
Q 3481 -459 3084 -895 
Q 2688 -1331 1869 -1331 
Q 1566 -1331 1297 -1286 
Q 1028 -1241 775 -1147 
L 775 -588 
Q 1028 -725 1275 -790 
Q 1522 -856 1778 -856 
Q 2344 -856 2625 -561 
Q 2906 -266 2906 331 
L 2906 616 
Q 2728 306 2450 153 
Q 2172 0 1784 0 
Q 1141 0 747 490 
Q 353 981 353 1791 
Q 353 2603 747 3093 
Q 1141 3584 1784 3584 
Q 2172 3584 2450 3431 
Q 2728 3278 2906 2969 
L 2906 3500 
L 3481 3500 
L 3481 434 
z
" transform="scale(0.015625)"/>
      </defs>
      <use xlink:href="#DejaVuSans-54"/>
      <use xlink:href="#DejaVuSans-65" x="44.083984"/>
      <use xlink:href="#DejaVuSans-6d" x="105.607422"/>
      <use xlink:href="#DejaVuSans-70" x="203.019531"/>
      <use xlink:href="#DejaVuSans-6f" x="266.496094"/>
      <use xlink:href="#DejaVuSans-20" x="327.677734"/>
      <use xlink:href="#DejaVuSans-64" x="359.464844"/>
      <use xlink:href="#DejaVuSans-65" x="422.941406"/>
      <use xlink:href="#DejaVuSans-20" x="484.464844"/>
      <use xlink:href="#DejaVuSans-52" x="516.251953"/>
      <use xlink:href="#DejaVuSans-65" x="581.234375"/>
      <use xlink:href="#DejaVuSans-6c" x="642.757812"/>
      <use xlink:href="#DejaVuSans-f3" x="670.541016"/>
      <use xlink:href="#DejaVuSans-67" x="731.722656"/>
      <use xlink:href="#DejaVuSans-69" x="795.199219"/>
      <use xlink:href="#DejaVuSans-6f" x="822.982422"/>
     </g>
    </g>
   </g>
  </g>
 </g>
 <defs>
  <clipPath id="p903754755f">
   <rect x="90" y="51.84" width="558" height="332.64"/>
  </clipPath>
 </defs>
</svg>
